<svg width="60" height="60" viewBox="0 0 60 60" fill="none" xmlns="http://www.w3.org/2000/svg">
<path fill-rule="evenodd" clip-rule="evenodd" d="M30 0C13.4315 0 0 13.4315 0 30C0 46.5685 13.4315 60 30 60C46.5685 60 60 46.5685 60 30C60 13.4315 46.5685 0 30 0ZM17.4194 19.3548C17.4017 19.3548 17.3841 19.3551 17.3665 19.3555C17.3883 19.3549 17.4101 19.3547 17.4319 19.3548C17.8738 19.3575 18.3172 19.5107 18.679 19.8208L30.9677 30.354L43.2565 19.8208C43.6183 19.5107 44.0617 19.3575 44.5036 19.3548C44.5254 19.3547 44.5472 19.3549 44.569 19.3555C44.5514 19.3551 44.5338 19.3548 44.5161 19.3548H44.5036H17.4319H17.4194ZM44.569 19.3555C44.8286 19.3627 45.0864 19.4218 45.3253 19.5316C45.0942 19.4251 44.8384 19.3628 44.569 19.3555ZM45.3253 19.5316C45.564 19.6416 45.7764 19.7987 45.9507 19.9911C45.77 19.7913 45.5565 19.6378 45.3253 19.5316ZM45.9507 19.9911C46.013 20.0597 46.0703 20.1329 46.1223 20.21C46.0807 20.1484 46.0352 20.0885 45.9857 20.0307C45.9742 20.0173 45.9625 20.0041 45.9507 19.9911ZM16.61 19.5316C16.849 19.4218 17.1068 19.3627 17.3665 19.3555C17.097 19.3628 16.8412 19.4251 16.61 19.5316ZM16.61 19.5316C16.3714 19.6416 16.159 19.7988 15.9847 19.9911C16.1654 19.7913 16.379 19.6378 16.61 19.5316ZM15.6034 20.6193C15.6899 20.3852 15.8203 20.1725 15.9847 19.9911C15.973 20.0041 15.9613 20.0173 15.9498 20.0307C15.796 20.2102 15.6807 20.4098 15.6034 20.6193ZM15.5024 21.0212C15.5218 20.882 15.556 20.7474 15.6034 20.6193C15.555 20.7502 15.5214 20.885 15.5024 21.0212ZM15.4839 21.3011C15.4833 21.2077 15.4895 21.1141 15.5024 21.0212C15.4902 21.1092 15.4839 21.199 15.4839 21.2903V21.3011ZM46.4516 21.3012C46.4483 21.8427 46.2191 22.3798 45.7757 22.7599L32.2273 34.3728C31.5025 34.994 30.433 34.994 29.7081 34.3728L16.1598 22.7599C15.7163 22.3798 15.4871 21.8426 15.4839 21.3011V40.6452C15.4839 41.7141 16.3504 42.5806 17.4194 42.5806H44.5161C45.5851 42.5806 46.4516 41.7141 46.4516 40.6452V21.3012ZM46.4516 21.3012C46.452 21.2346 46.449 21.1678 46.4425 21.1013C46.4485 21.1635 46.4516 21.2266 46.4516 21.2903V21.3012ZM11.6129 21.2903C11.6129 18.0835 14.2125 15.4839 17.4194 15.4839H44.5161C47.7229 15.4839 50.3226 18.0835 50.3226 21.2903V40.6452C50.3226 43.852 47.7229 46.4516 44.5161 46.4516H17.4194C14.2125 46.4516 11.6129 43.852 11.6129 40.6452V21.2903Z" fill="#453643"/>
</svg>
