<svg width="60" height="59" viewBox="0 0 60 59" fill="none" xmlns="http://www.w3.org/2000/svg">
<path d="M30 0C13.125 0 0 13.1499 0 30.0569C0 49.7818 17.8125 58.2353 20.625 58.2353C22.5 58.2353 22.5 57.296 22.5 56.3567V51.6603C15.9375 53.5389 13.125 49.7818 12.1875 46.9639C12.1875 46.9639 12.1875 46.0247 10.3125 44.1461C9.375 43.2068 5.625 41.3283 9.375 41.3283C12.1875 41.3283 14.0625 45.0854 14.0625 45.0854C16.875 48.8425 20.625 47.9032 22.5 46.9639C22.5 45.0854 24.375 43.2068 24.375 43.2068C16.875 42.2676 11.25 39.4497 11.25 29.1176C11.25 25.3605 12.1875 22.5427 14.0625 20.6641C14.0625 20.6641 12.1875 16.907 14.0625 12.2106C14.0625 12.2106 18.75 12.2106 22.5 15.9677C25.3125 14.0892 34.6875 14.0892 37.5 15.9677C41.25 12.2106 45.9375 12.2106 45.9375 12.2106C47.8125 18.7856 45.9375 20.6641 45.9375 20.6641C47.8125 22.5427 48.75 25.3605 48.75 29.1176C48.75 39.4497 42.1875 42.2676 35.625 43.2068C36.5625 44.1461 37.5 46.0247 37.5 48.8425V56.3567C37.5 57.296 37.5 58.2353 39.375 58.2353C42.1875 58.2353 60 49.7818 60 30.0569C60 13.1499 46.875 0 30 0Z" fill="#453643"/>
</svg>
