<svg width="60" height="60" viewBox="0 0 80 80" fill="none" xmlns="http://www.w3.org/2000/svg">
<path d="M40 0C17.9083 0 0 17.9083 0 40C0 62.0917 17.9083 80 40 80C62.0917 80 80 62.0917 80 40C80 17.9083 62.0917 0 40 0ZM55.3833 45.1292C55.3833 45.1292 58.9208 48.6208 59.7917 50.2417C59.8167 50.275 59.8292 50.3083 59.8375 50.325C60.1917 50.9208 60.275 51.3833 60.1 51.7292C59.8083 52.3042 58.8083 52.5875 58.4667 52.6125H52.2167C51.7833 52.6125 50.875 52.5 49.775 51.7417C48.9292 51.15 48.0958 50.1792 47.2833 49.2333C46.0708 47.825 45.0208 46.6083 43.9625 46.6083C43.8281 46.6081 43.6945 46.6292 43.5667 46.6708C42.7667 46.9292 41.7417 48.0708 41.7417 51.1125C41.7417 52.0625 40.9917 52.6083 40.4625 52.6083H37.6C36.625 52.6083 31.5458 52.2667 27.0458 47.5208C21.5375 41.7083 16.5792 30.05 16.5375 29.9417C16.225 29.1875 16.8708 28.7833 17.575 28.7833H23.8875C24.7292 28.7833 25.0042 29.2958 25.1958 29.75C25.4208 30.2792 26.2458 32.3833 27.6 34.75C29.7958 38.6083 31.1417 40.175 32.2208 40.175C32.4232 40.1726 32.6219 40.1211 32.8 40.025C34.2083 39.2417 33.9458 34.2208 33.8833 33.1792C33.8833 32.9833 33.8792 30.9333 33.1583 29.95C32.6417 29.2375 31.7625 28.9667 31.2292 28.8667C31.445 28.5688 31.7294 28.3273 32.0583 28.1625C33.025 27.6792 34.7667 27.6083 36.4958 27.6083H37.4583C39.3333 27.6333 39.8167 27.7542 40.4958 27.925C41.8708 28.2542 41.9 29.1417 41.7792 32.1792C41.7417 33.0417 41.7042 34.0167 41.7042 35.1667C41.7042 35.4167 41.6917 35.6833 41.6917 35.9667C41.65 37.5125 41.6 39.2667 42.6917 39.9875C42.8341 40.0768 42.9986 40.1244 43.1667 40.125C43.5458 40.125 44.6875 40.125 47.7792 34.8208C48.7326 33.1136 49.5612 31.3395 50.2583 29.5125C50.3208 29.4042 50.5042 29.0708 50.7208 28.9417C50.8807 28.8601 51.058 28.8187 51.2375 28.8208H58.6583C59.4667 28.8208 60.0208 28.9417 60.125 29.2542C60.3083 29.75 60.0917 31.2625 56.7042 35.85L55.1917 37.8458C52.1208 41.8708 52.1208 42.075 55.3833 45.1292V45.1292Z" fill="#453643"/>
</svg>
