<svg width="60" height="60" viewBox="0 0 60 60" fill="none" xmlns="http://www.w3.org/2000/svg">
<path d="M30 0C13.4265 0 0 13.4284 0 30C0 46.5716 13.4284 60 30 60C46.5735 60 60 46.5716 60 30C60 13.4284 46.5716 0 30 0ZM44.7348 20.5529L39.811 43.7555C39.4471 45.4006 38.4677 45.7994 37.1013 45.0252L29.6013 39.4974L25.9839 42.9813C25.5852 43.38 25.2465 43.7187 24.4723 43.7187L25.0045 36.0852L38.9032 23.5277C39.509 22.9955 38.7697 22.6935 37.9703 23.2258L20.7929 34.0394L13.3897 31.7284C11.7813 31.2213 11.7445 30.12 13.7284 29.3458L42.6523 18.1916C43.9955 17.7077 45.1684 18.5187 44.7329 20.551L44.7348 20.5529Z" fill="#453643"/>
</svg>
